<svg xmlns="http://www.w3.org/2000/svg" viewBox="0 0 124 124"><defs><style>.cls-1{fill:#fff;}</style></defs><g id="Layer_2" data-name="Layer 2"><g id="Layer_1-2" data-name="Layer 1"><path class="cls-1" d="M18,2.33A26.79,26.79,0,0,0,2.73,22.18c-1.55,9.57,1.53,19.17,4,28.61C10.79,65.93,8,76,2.55,90.57c-2.92,7.81-4.27,16.77,1.17,23.68,7.36,9.35,23.85,11,37.54,9s27.14-6.32,41-5.24c9.53.75,20.09,3.91,28-.39,5.39-2.93,7.45-8.47,8.08-13.63,1.82-15-5.13-30-3.19-44.93,1.42-11,7.59-21.38,8.77-32.4,1-9.55-4-24.3-18-26.24-14.56-2-29.91,6-44.67,4.84C48.44,4.31,36-1.89,23.58.58A26,26,0,0,0,18,2.33Z"/></g></g></svg>