<svg xmlns="http://www.w3.org/2000/svg" viewBox="0 0 506.75 363.27"><defs><style>.cls-1{fill:#e5bd7c;}.cls-2{fill:#463263;}</style></defs><g id="Layer_2" data-name="Layer 2"><g id="Layer_1-2" data-name="Layer 1"><path class="cls-1" d="M35.86,95.71l-17.81,4.82S5.09,151,4.33,186.82s9.91,83.88,9.91,83.88l15.43,22.17,12,6.8,63.29,8,49.94-6.86,113,38.75L370.09,356.5H422l45.14-18.06L482.94,317,501,245.34V156.75l-20.88-61L432.16,62l-7.9-28.21L379.68,9.22,334,3.27,287.7,12.86,233,43.89,183.32,80.57l-31,6.21-28.21-1.69Z"/><path d="M271.33,15.35c-18.55,8.19-39.89,23.45-60.75,39.47-8.42,6.48-16.65,13.25-25.44,19.2a40.36,40.36,0,0,1-14.53,6.06c-9.8,1.9-19.46,3.32-29.87,1.65-22.31-3.55-44.79-.81-67,2.16-15.29,2-30.38,5.48-45.6,8-8.91,1.49-14.7,6.6-16.89,14.94C7.94,119.36,4.51,132,3,144.77c-4.65,38.67-4.46,77.34,4.89,115.42,2.27,9.25,6.3,18.19,10.44,26.84,4.89,10.24,13.86,15.79,24.73,18.5,28.6,7.12,57.6,7.4,86.72,4.91,7.24-.62,14.37-2.5,21.6-3.46a13.9,13.9,0,0,1,6.62,1c65.22,25.84,132,45.74,202,53.31,25.38,2.74,50.9,3.37,75.79-3.31a126.58,126.58,0,0,0,29.69-12.51c14.37-8.25,21-22.76,26.05-37.78,11.65-34.6,14.92-70.47,15.2-106.71.19-24.36-2.12-48.45-8.7-72-6-21.57-14.63-41.62-34.66-54-7.16-4.44-15.07-7.69-22.74-11.28-2.26-1.06-3.74-1.86-3.81-4.88-.34-15.41-7.88-27.18-19.53-36.56-13.32-10.71-29-16-45.53-19.15C339.19-3.16,307.58-.33,271.33,15.35ZM427.5,59.27c-1.92-.34-3.07-.51-4.2-.75a271.87,271.87,0,0,0-67.37-6.09c-14.66.5-29.15,2.23-43.17,6.86-3.14,1-5.34,3.27-3.72,6.24.87,1.59,4.28,2.62,6.46,2.48,3.42-.21,6.72-1.82,10.13-2.51,33.71-6.77,67.18-4.42,100.38,3.32,33.74,7.86,54.72,28.32,63.12,62.53,6.94,28.25,9.16,56.68,7.92,85.53-1.33,31-5.1,61.61-15.45,91.14-6.88,19.62-19.72,32.5-39.73,38.74-15.92,5-32.15,6.76-48.65,6.83-32.79.14-64.93-5.06-96.8-12.18a849,849,0,0,1-132.4-41c-3.31-1.33-5.47-2.88-6-6.88-2.7-20.56-6.73-41-8.38-61.65-3.54-44-2.92-88,3.72-131.79,1.41-9.29-.67-8,9.14-9C176.82,89.8,188.75,84,200,75.28c16.64-13,33.44-25.77,50.93-37.52,37.45-25.16,78.37-34.57,123-24.68,15.49,3.43,30,8.84,41.63,20.17C422.67,40.19,427.06,48.49,427.5,59.27Zm-278.12,239a270.73,270.73,0,0,1-96.76-.09,6.19,6.19,0,0,1-3.77-3.39c-3-7-6.2-14.06-8.24-21.38C30.18,235.8,28,197.43,30.73,158.72c1.37-19.63,4.13-39.07,12.11-57.32.8-1.81,2.92-4,4.71-4.27,29.2-4.92,58.53-8.51,88.24-7.06a93.57,93.57,0,0,1,9.4,1.41c-5.89,34.7-7.25,69-6.7,103.49S141.68,263.62,149.38,298.24ZM31.92,100.53C14.22,165.25,17,229,35.86,292.87c-3.37-3-7.21-5.86-8.9-9.7-4.33-9.82-9-19.79-11.23-30.19-8.52-40.46-8-81.23-1.41-121.92,1.24-7.65,3.9-15.1,6.28-22.52C22.31,103.22,26.43,100.71,31.92,100.53Z"/><path class="cls-2" d="M78.36,218.57h.19L90.7,206.35c-.28-.09-.41-.31-.46-.72-.12-1-.21-2-.32-3a58,58,0,0,1-.4-10.37,25.13,25.13,0,0,1,.3-2.75,2.05,2.05,0,0,1,1.64-1.7,4.34,4.34,0,0,1,.8-.15,2,2,0,0,0,1.53-.77,2.36,2.36,0,0,1,3.35-.49l.27.16c.3-.27.57-.51.83-.76a2,2,0,0,1,2.19-.35,7.67,7.67,0,0,1,1,.52.66.66,0,0,0,.75,0,8.81,8.81,0,0,1,1-.45,2.59,2.59,0,0,1,3.44,1.64A6.93,6.93,0,0,1,107,189c0,1.56,0,3.12,0,4.68a4.53,4.53,0,0,0,0,.74.74.74,0,0,0,.88.59,4.21,4.21,0,0,0,.84-.3c1.21-.53,2.41-1.1,3.64-1.59a5.38,5.38,0,0,1,4.78.38,1.52,1.52,0,0,1,.76,1.8,1.59,1.59,0,0,1-1.24,1.43,6.9,6.9,0,0,1-1.2.14,5.06,5.06,0,0,0-4.3,2.42,15,15,0,0,1-3.46,3.64,21.62,21.62,0,0,1-2.4,1.46c-.62.35-1.23.67-1.43,1.44-.09.34-.2.49-.43.56L93.34,227.22a2.6,2.6,0,0,0,1.89,3.7,37.51,37.51,0,0,0,6.37.52c16.81,0,25.51-9.89,25.51-28.37V172.92a11.68,11.68,0,0,0-11.68-11.68H58.1c-7.15,0-11.56,4.17-11.56,11s4.41,11,11.56,11H73.71v12.51L52,211.65c-3.93,2.86-5.48,6-5.48,9.66,0,6.43,4.29,10.84,11,10.84a12.34,12.34,0,0,0,8.1-3.22Z"/><path class="cls-2" d="M120.33,96.62l4.44,9a1.68,1.68,0,0,0,1.26.91L136,108a1.66,1.66,0,0,1,.92,2.84l-7.18,7a1.67,1.67,0,0,0-.48,1.47l1.7,9.89a1.66,1.66,0,0,1-2.41,1.75l-8.88-4.67a1.7,1.7,0,0,0-1.55,0l-8.88,4.67a1.66,1.66,0,0,1-2.41-1.75l1.69-9.89a1.64,1.64,0,0,0-.48-1.47l-7.18-7a1.66,1.66,0,0,1,.92-2.84l9.93-1.44a1.66,1.66,0,0,0,1.25-.91l4.44-9A1.66,1.66,0,0,1,120.33,96.62Z"/><path class="cls-2" d="M120.33,262.11l4.44,9A1.68,1.68,0,0,0,126,272l9.92,1.44a1.66,1.66,0,0,1,.92,2.84l-7.18,7a1.67,1.67,0,0,0-.48,1.47l1.7,9.89a1.66,1.66,0,0,1-2.41,1.75l-8.88-4.67a1.7,1.7,0,0,0-1.55,0l-8.88,4.67a1.66,1.66,0,0,1-2.41-1.75l1.69-9.89a1.64,1.64,0,0,0-.48-1.47l-7.18-7a1.66,1.66,0,0,1,.92-2.84l9.93-1.44a1.66,1.66,0,0,0,1.25-.91l4.44-9A1.66,1.66,0,0,1,120.33,262.11Z"/></g></g></svg>