<?xml version="1.0" standalone="no"?>
<!DOCTYPE svg PUBLIC "-//W3C//DTD SVG 20010904//EN"
 "http://www.w3.org/TR/2001/REC-SVG-20010904/DTD/svg10.dtd">
<svg version="1.0" xmlns="http://www.w3.org/2000/svg"
 width="820.000000pt" height="1131.000000pt" viewBox="0 0 820.000000 1131.000000"
 preserveAspectRatio="xMidYMid meet">
<metadata>
Created by potrace 1.16, written by Peter Selinger 2001-2019
</metadata>
<g transform="translate(0.000000,1131.000000) scale(0.100000,-0.100000)"
fill="#000000" stroke="none">
<path d="M0 5655 l0 -5655 4100 0 4100 0 0 5655 0 5655 -4100 0 -4100 0 0
-5655z m8000 3197 c0 -1237 -3 -3680 -7 -5430 l-6 -3182 -3111 1 c-3155 1
-4568 8 -4583 23 -14 14 -21 810 -35 4316 -17 4378 -17 5949 0 6170 13 172 28
277 42 299 4 8 32 18 61 23 91 17 1448 24 4612 26 l3027 2 0 -2248z"/>
<path d="M6034 9379 c-180 -16 -389 -71 -519 -136 -229 -115 -513 -382 -647
-608 -81 -136 -179 -355 -248 -554 l-47 -133 -6 203 c-4 112 -7 419 -7 682 l0
478 -1907 -4 c-1269 -2 -1918 -6 -1938 -13 -19 -7 -31 -18 -33 -32 -5 -35 42
-48 289 -77 123 -14 265 -34 314 -44 212 -43 383 -182 475 -385 84 -185 84
-175 85 -3246 0 -2804 3 -2656 -55 -2888 -59 -234 -159 -371 -337 -461 -121
-61 -346 -105 -588 -117 -82 -3 -158 -11 -167 -16 -29 -14 -23 -57 10 -69 51
-21 701 -28 2562 -28 1861 0 2511 7 2563 28 29 11 38 50 15 69 -7 5 -80 13
-163 16 -540 25 -784 149 -896 457 -36 98 -65 240 -79 389 -29 299 -29 4251 0
4645 55 760 271 1235 683 1503 133 86 393 188 537 211 98 16 497 14 611 -4
267 -40 440 -167 564 -414 40 -79 64 -166 49 -181 -6 -6 -40 9 -94 42 -462
279 -1060 272 -1507 -17 -116 -75 -272 -234 -336 -342 -92 -154 -159 -340
-187 -518 -6 -38 -11 -131 -11 -206 -1 -585 333 -1066 861 -1243 283 -95 601
-94 880 1 396 135 693 447 819 859 118 386 107 822 -30 1221 -80 232 -164 366
-344 548 -160 162 -277 240 -456 303 -213 75 -463 104 -715 81z"/>
</g>
</svg>
