<svg xmlns="http://www.w3.org/2000/svg" viewBox="0 0 556.03 121.1"><defs><style>.cls-1{fill:#e5bd7c;}.cls-2{fill:#ae919a;}</style></defs><g id="Layer_2" data-name="Layer 2"><g id="Layer_1-2" data-name="Layer 1"><path class="cls-1" d="M84.82,72.12v-.28l-18.08-18c-.14.42-.45.61-1.06.68-1.47.18-3,.32-4.42.48a85.63,85.63,0,0,1-15.35.59,39.55,39.55,0,0,1-4.07-.44,3,3,0,0,1-2.51-2.43,5.35,5.35,0,0,1-.23-1.18A2.88,2.88,0,0,0,38,49.3a3.49,3.49,0,0,1-.72-5c.09-.15.18-.29.24-.4-.41-.45-.76-.85-1.13-1.23a2.91,2.91,0,0,1-.52-3.24A12.54,12.54,0,0,1,36.6,38a1,1,0,0,0,0-1.11A12.9,12.9,0,0,1,36,35.38a3.82,3.82,0,0,1,2.44-5.09,9.69,9.69,0,0,1,2.64-.54c2.31-.07,4.63,0,6.94,0a5.6,5.6,0,0,0,1.09-.09,1.08,1.08,0,0,0,.87-1.3,6.24,6.24,0,0,0-.44-1.23c-.78-1.8-1.63-3.57-2.36-5.4a8,8,0,0,1,.57-7.07,2.26,2.26,0,0,1,2.66-1.12,2.32,2.32,0,0,1,2.11,1.84,8.83,8.83,0,0,1,.21,1.78,7.48,7.48,0,0,0,3.59,6.36,22,22,0,0,1,5.38,5.12,33.44,33.44,0,0,1,2.16,3.54c.52.92,1,1.83,2.14,2.12.49.13.73.3.83.64L97.62,50a3.84,3.84,0,0,0,5.47-2.79,54.89,54.89,0,0,0,.77-9.43C103.86,12.87,89.23,0,61.89,0H17.28A17.28,17.28,0,0,0,0,17.28V102.1c0,10.58,6.17,17.1,16.22,17.1s16.23-6.52,16.23-17.1V79H51l23.63,32.09c4.23,5.82,8.82,8.11,14.28,8.11,9.52,0,16-6.35,16-16.22,0-4.06-1.41-7.94-4.76-12Z"/><path class="cls-1" d="M187.93,74.1v1.42c0,7.57-4.73,12.14-12.3,12.14h-41.8v.47c1.74,7.42,7.41,11.83,16.09,11.83,5.05,0,10.72-1.42,13.56-4.26,2.37-2.36,5.84-4.73,9.62-4.73,6.63,0,10.73,3.94,10.73,10.57a11.11,11.11,0,0,1-2.84,7.57c-6.63,7.73-18,12-31.07,12-25.39,0-42.27-16.09-42.27-39.91,0-23.65,16.88-39.9,41.64-39.9C170.58,41.29,187.93,57.06,187.93,74.1ZM163.8,73c-1.74-6.62-7.89-10.56-15-10.56-7.57,0-13.09,4.1-15,10.56v.32h30Z"/><path class="cls-1" d="M262.05,96.65a14.67,14.67,0,0,1,4.1,10.41c0,7.57-5.2,13.09-13.09,13.09-4.41,0-8.2-1.89-11.51-6.15L225.78,93,219,98.38v7.73c0,8.68-5.05,14-13.25,14s-13.25-5.36-13.25-14V21.89c0-8.67,5.05-14,13.25-14S219,13.22,219,21.89V69.36l23.81-22.55c2.84-2.84,6-4.57,9.94-4.57,7.57,0,12.62,5.36,12.62,12.77a14,14,0,0,1-5.53,11.36l-15,11Z"/><path class="cls-1" d="M339.33,96.65a14.67,14.67,0,0,1,4.1,10.41c0,7.57-5.2,13.09-13.09,13.09-4.41,0-8.2-1.89-11.51-6.15L303.06,93l-6.78,5.36v7.73c0,8.68-5,14-13.25,14s-13.25-5.36-13.25-14V21.89c0-8.67,5.05-14,13.25-14s13.25,5.36,13.25,14V69.36l23.81-22.55c2.84-2.84,6-4.57,9.94-4.57,7.57,0,12.62,5.36,12.62,12.77a14,14,0,0,1-5.53,11.36l-15,11Z"/><path class="cls-2" d="M465,74.57v31.54c0,8.68-5,14-13.25,14s-13.24-5.36-13.24-14V77.72c0-8-3.16-12.14-9.31-12.14-6.62,0-9.94,4.73-9.94,13.88v26.65c0,8.68-5,14-13.24,14s-13.25-5.36-13.25-14V77.72c0-8-3.16-12.14-9.31-12.14-6.62,0-9.93,4.73-9.93,13.88v26.65c0,8.68-5.05,14-13.25,14s-13.25-5.36-13.25-14V56.27c0-8.67,5.05-14,13.25-14,6.15,0,10.41,3.15,12.3,8.2h.32c4.25-6,10.25-9.15,19.08-9.15,9,0,15.93,3.31,20.5,9.31h.32c5-6,12.93-9.31,23.34-9.31C455.09,41.29,465,52.65,465,74.57Z"/><path class="cls-2" d="M556,74.1v1.42c0,7.57-4.73,12.14-12.3,12.14h-41.8v.47C503.67,95.55,509.35,100,518,100c5.05,0,10.72-1.42,13.56-4.26C534,93.34,537.42,91,541.2,91c6.63,0,10.73,3.94,10.73,10.57a11.11,11.11,0,0,1-2.84,7.57c-6.62,7.73-18,12-31.07,12-25.39,0-42.27-16.09-42.27-39.91,0-23.65,16.88-39.9,41.64-39.9C538.68,41.29,556,57.06,556,74.1ZM531.9,73c-1.74-6.62-7.89-10.56-15-10.56-7.57,0-13.09,4.1-15,10.56v.32h30Z"/></g></g></svg>