<svg xmlns="http://www.w3.org/2000/svg" viewBox="0 0 559.66 166.54"><defs><style>.cls-1,.cls-2{fill:#e5bd7c;}.cls-2{font-size:157.71px;font-family:Como-Heavy, Como;font-weight:800;}.cls-3{letter-spacing:-0.04em;}.cls-4{fill:#ae919a;}</style></defs><g id="Layer_2" data-name="Layer 2"><g id="Layer_1-2" data-name="Layer 1"><path class="cls-1" d="M84.82,84.61v-.28l-18.08-18c-.14.42-.45.61-1.06.68-1.47.18-3,.31-4.42.48a86.56,86.56,0,0,1-15.35.59,39.55,39.55,0,0,1-4.07-.44,3,3,0,0,1-2.51-2.43A5.44,5.44,0,0,1,39.1,64,2.89,2.89,0,0,0,38,61.78a3.48,3.48,0,0,1-.72-5l.24-.4c-.41-.45-.76-.85-1.13-1.24A2.9,2.9,0,0,1,35.83,52a12.54,12.54,0,0,1,.77-1.45,1,1,0,0,0,0-1.11A12.36,12.36,0,0,1,36,47.86a3.82,3.82,0,0,1,2.44-5.09,9.68,9.68,0,0,1,2.64-.53c2.31-.07,4.63,0,6.94,0a5.6,5.6,0,0,0,1.09-.09,1.09,1.09,0,0,0,.87-1.3,6.24,6.24,0,0,0-.44-1.23c-.78-1.8-1.63-3.58-2.36-5.4a8,8,0,0,1,.57-7.07A2.27,2.27,0,0,1,50.39,26a2.33,2.33,0,0,1,2.11,1.85,8.82,8.82,0,0,1,.21,1.77A7.5,7.5,0,0,0,56.3,36a22.15,22.15,0,0,1,5.38,5.11,34.63,34.63,0,0,1,2.16,3.55c.52.92,1,1.83,2.14,2.12.49.13.73.3.83.63l30.81,15a3.85,3.85,0,0,0,5.47-2.79,54.92,54.92,0,0,0,.77-9.44c0-24.86-14.63-37.73-42-37.73H17.28A17.28,17.28,0,0,0,0,29.77v84.82c0,10.58,6.17,17.1,16.22,17.1s16.23-6.52,16.23-17.1V91.49H51l23.63,32.09c4.23,5.82,8.82,8.11,14.28,8.11,9.52,0,16-6.35,16-16.22,0-4.06-1.41-7.94-4.76-12Z"/><text class="cls-2" transform="translate(102.92 131.69)"><tspan class="cls-3">ekk</tspan><tspan class="cls-4" x="236.89" y="0">me</tspan></text></g></g></svg>